HIERARCHY
ROOT Hips
{
	OFFSET 0.000000 0.000000 0.000000 
	CHANNELS 6 Xposition Yposition Zposition Zrotation Xrotation Yrotation
	JOINT Spine
	{
		OFFSET -0.000000 8.339920 0.000000 
		CHANNELS 3 Zrotation Xrotation Yrotation
		JOINT Spine1
		{
			OFFSET -0.000000 25.214485 0.000000 
			CHANNELS 3 Zrotation Xrotation Yrotation
			JOINT Neck
			{
				OFFSET -0.000000 25.110935 2.282812 
				CHANNELS 3 Zrotation Xrotation Yrotation
				JOINT Head
				{
					OFFSET -0.000000 14.238888 -2.034127 
					CHANNELS 3 Zrotation Xrotation Yrotation
					End Site
					{
						OFFSET -0.000000 25.426584 0.000000 
					}
				}
			}
			JOINT LeftShoulder
			{
				OFFSET 4.025024 23.158985 -0.185822 
				CHANNELS 3 Zrotation Xrotation Yrotation
				JOINT LeftArm
				{
					OFFSET 11.674057 0.000000 0.000000 
					CHANNELS 3 Zrotation Xrotation Yrotation
					JOINT LeftForeArm
					{
						OFFSET 31.688633 0.000000 0.000000 
						CHANNELS 3 Zrotation Xrotation Yrotation
						JOINT LeftHand
						{
							OFFSET 29.704493 0.000000 0.000000 
							CHANNELS 3 Zrotation Xrotation Yrotation
							End Site
							{
								OFFSET 15.255952 0.000000 0.000000 
							}
						}
					}
				}
			}
			JOINT RightShoulder
			{
				OFFSET -4.099539 23.158985 -0.185822 
				CHANNELS 3 Zrotation Xrotation Yrotation
				JOINT RightArm
				{
					OFFSET -11.674057 0.000000 0.000000 
					CHANNELS 3 Zrotation Xrotation Yrotation
					JOINT RightForeArm
					{
						OFFSET -31.688633 0.000000 0.000000 
						CHANNELS 3 Zrotation Xrotation Yrotation
						JOINT RightHand
						{
							OFFSET -29.704493 0.000000 0.000000 
							CHANNELS 3 Zrotation Xrotation Yrotation
							End Site
							{
								OFFSET -15.255952 0.000000 0.000000 
							}
						}
					}
				}
			}
		}
	}
	JOINT LeftUpLeg
	{
		OFFSET 10.170634 0.000000 0.000000 
		CHANNELS 3 Zrotation Xrotation Yrotation
		JOINT LeftLeg
		{
			OFFSET -0.000000 -41.352962 0.000000 
			CHANNELS 3 Zrotation Xrotation Yrotation
			JOINT LeftFoot
			{
				OFFSET -0.000000 -47.535004 0.000000 
				CHANNELS 3 Zrotation Xrotation Yrotation
				JOINT LeftToeBase
				{
					OFFSET -0.000000 -6.610912 15.255952 
					CHANNELS 3 Zrotation Xrotation Yrotation
					End Site
					{
						OFFSET -0.000000 0.000000 4.068254 
					}
				}
			}
		}
	}
	JOINT RightUpLeg
	{
		OFFSET -10.170634 0.000000 0.000000 
		CHANNELS 3 Zrotation Xrotation Yrotation
		JOINT RightLeg
		{
			OFFSET -0.000000 -41.352962 0.000000 
			CHANNELS 3 Zrotation Xrotation Yrotation
			JOINT RightFoot
			{
				OFFSET -0.000000 -47.535004 0.000000 
				CHANNELS 3 Zrotation Xrotation Yrotation
				JOINT RightToeBase
				{
					OFFSET -0.000000 -6.610912 15.255952 
					CHANNELS 3 Zrotation Xrotation Yrotation
					End Site
					{
						OFFSET -0.000000 0.000000 4.068254 
					}
				}
			}
		}
	}
}
MOTION
Frames: 15
Frame Time: 0.008333
-0.005260 94.368393 -0.004353 1.192563 -0.763435 90.892593 -0.350255 -6.054402 -1.134229 3.315785 4.364252 -1.242129 -8.943294 33.785709 -0.644394 7.005836 -10.567027 -0.609546 14.632462 1.735633 -1.152554 -19.784132 -3.541386 3.276874 2.289773 -11.482668 0.726508 -10.310193 -11.243331 -2.866117 -20.036659 1.614267 -6.971763 13.622784 2.789553 7.350374 -2.105301 -3.980229 0.838544 -4.619826 -4.087128 3.038581 1.358818 10.402059 1.398687 -0.773784 -3.439429 5.442184 -1.971730 -5.221156 8.786623 0.000000 0.000000 0.000000 2.631468 8.475894 0.254529 -2.465691 -0.740669 -1.224582 0.237265 -5.885983 -8.277265 0.000000 0.000000 0.000000 
-0.011662 94.370125 -0.009480 1.187370 -0.770220 90.909378 -0.365081 -6.064120 -1.145258 3.355231 4.399048 -1.254852 -8.984565 33.739632 -0.565326 6.956117 -10.536248 -0.543493 14.607727 1.731867 -1.129459 -19.803677 -3.613982 3.277628 2.271163 -11.462696 0.721160 -10.401718 -11.215483 -2.926219 -20.114603 1.542436 -6.985083 13.723075 2.803124 7.344267 -2.140622 -4.073175 0.901159 -4.715210 -4.179471 2.997435 1.367584 10.401260 1.399745 -0.778428 -3.455394 5.454556 -1.968137 -5.210167 8.750290 0.000000 0.000000 0.000000 2.639968 8.466756 0.258287 -2.471628 -0.741043 -1.267683 0.283856 -5.876491 -8.255032 0.000000 0.000000 0.000000 
-0.019932 94.375923 -0.015827 1.174419 -0.770485 90.936157 -0.380980 -6.068009 -1.154557 3.377580 4.403699 -1.264323 -9.031710 33.783234 -0.439094 6.940540 -10.614110 -0.423633 14.592511 1.710718 -1.130152 -19.855740 -3.510875 3.281304 2.358125 -11.434822 0.748849 -10.803097 -11.171274 -3.004491 -20.126783 1.539758 -7.007035 13.768621 2.787171 7.333397 -2.190905 -4.174271 1.022125 -4.778316 -4.274150 2.868405 1.369037 10.381021 1.383084 -0.775383 -3.462010 5.461641 -1.975995 -5.177495 8.723525 0.000000 0.000000 0.000000 2.638420 8.448709 0.260995 -2.468121 -0.736689 -1.278891 0.275874 -5.857723 -8.271912 0.000000 0.000000 0.000000 
-0.027260 94.382530 -0.020870 1.168538 -0.777324 90.967903 -0.388496 -6.073340 -1.169803 3.387474 4.421819 -1.280029 -9.034819 33.763557 -0.361007 6.890436 -10.585824 -0.354330 14.603649 1.701632 -1.127776 -19.909809 -3.540099 3.285824 2.342847 -11.457124 0.764949 -10.777224 -11.189877 -3.054351 -20.127798 1.519606 -7.001647 13.806748 2.838703 7.328943 -2.180422 -4.391661 1.087598 -5.110407 -4.492278 2.725095 1.358475 10.348005 1.409479 -0.740403 -3.446333 5.519215 -2.012203 -5.151493 8.614847 0.000000 0.000000 0.000000 2.643504 8.440941 0.250827 -2.468899 -0.731054 -1.226836 0.288099 -5.833524 -8.330281 0.000000 0.000000 0.000000 
-0.056252 94.383194 -0.027611 1.128421 -0.782218 91.022156 -0.400793 -6.063793 -1.188126 3.403972 4.382950 -1.297243 -9.042604 33.736855 -0.304753 6.861253 -10.539393 -0.304035 14.603106 1.699557 -1.141802 -19.965164 -3.525267 3.296077 2.362688 -11.450177 0.761287 -10.793907 -11.182073 -3.059473 -20.131392 1.528105 -7.030061 13.836482 2.837909 7.331360 -2.180190 -4.436209 1.140630 -5.137195 -4.539155 2.785619 1.376530 10.262406 1.413237 -0.752197 -3.403373 5.449909 -2.013400 -5.171281 8.608329 0.000000 0.000000 0.000000 2.649463 8.366161 0.222634 -2.472335 -0.689338 -1.114256 0.271677 -5.843581 -8.458063 0.000000 0.000000 0.000000 
-0.081249 94.385490 -0.034260 1.074952 -0.777301 91.053764 -0.417602 -6.073361 -1.201605 3.406700 4.342740 -1.308723 -9.011720 33.735222 -0.260609 6.790592 -10.524653 -0.269811 14.622436 1.680528 -1.144344 -20.026054 -3.534034 3.306063 2.394395 -11.522404 0.769755 -10.686086 -11.257394 -3.061669 -20.134241 1.509697 -7.049360 13.874495 2.868848 7.345313 -2.155208 -4.406159 1.132820 -5.178734 -4.521385 3.026467 1.382719 10.156458 1.553316 -0.776581 -3.341368 5.275349 -2.030766 -5.192269 8.602118 0.000000 0.000000 0.000000 2.639751 8.283686 0.234991 -2.462092 -0.655604 -1.110129 0.267567 -5.855087 -8.512046 0.000000 0.000000 0.000000 
-0.091095 94.393181 -0.044846 1.074107 -0.771072 91.101326 -0.430591 -6.043076 -1.217718 3.405319 4.307223 -1.323082 -8.970059 33.749851 -0.251407 6.711831 -10.514159 -0.273253 14.625041 1.682859 -1.153767 -20.078001 -3.575611 3.292977 2.428940 -11.489654 0.804157 -10.414690 -11.230405 -3.087664 -20.139839 1.506808 -7.072385 13.906123 2.938804 7.376633 -2.152107 -4.420882 1.119574 -5.118347 -4.539027 3.121618 1.381888 10.136518 1.559774 -0.782748 -3.333054 5.239883 -2.030975 -5.156740 8.584274 0.000000 0.000000 0.000000 2.637575 8.281821 0.228264 -2.470471 -0.657293 -1.148422 0.281479 -5.826829 -8.510254 0.000000 0.000000 0.000000 
-0.078339 94.407333 -0.058723 1.125454 -0.755292 91.143074 -0.438259 -5.998301 -1.231794 3.375537 4.315921 -1.336140 -8.932759 33.721844 -0.228480 6.678590 -10.453239 -0.251327 14.648183 1.689379 -1.146305 -20.145699 -3.610497 3.263920 2.432361 -11.394958 0.847387 -9.976990 -11.152799 -3.034154 -20.110853 1.487851 -7.097960 13.924621 2.921958 7.390880 -2.162563 -4.320232 1.138798 -4.961648 -4.436944 3.197583 1.361734 10.206420 1.553964 -0.776557 -3.370939 5.274313 -2.066020 -5.070982 8.507771 0.000000 0.000000 0.000000 2.617188 8.361442 0.238612 -2.466822 -0.688427 -1.175665 0.295167 -5.774872 -8.536206 0.000000 0.000000 0.000000 
-0.091778 94.411919 -0.072937 1.121422 -0.752399 91.189293 -0.449924 -5.932178 -1.246350 3.400655 4.185633 -1.347384 -8.942057 33.833683 -0.201816 6.627198 -10.486190 -0.245921 14.561851 1.736975 -1.208480 -20.140408 -3.635470 3.281710 2.510045 -11.385044 0.875348 -9.823529 -11.156701 -2.931651 -20.095901 1.543840 -7.082295 13.928167 2.903286 7.374400 -2.185309 -4.224770 1.157797 -4.837517 -4.346614 3.415002 1.358151 10.184577 1.560344 -0.775821 -3.358769 5.208331 -2.089870 -5.065658 8.512404 0.000000 0.000000 0.000000 2.609909 8.346151 0.234306 -2.461757 -0.676231 -1.197592 0.298061 -5.768159 -8.558914 0.000000 0.000000 0.000000 
-0.104343 94.416222 -0.090061 1.132386 -0.747425 91.239815 -0.459698 -5.874825 -1.262132 3.413364 4.134037 -1.361773 -8.926262 33.794060 -0.192872 6.586621 -10.404230 -0.244043 14.535857 1.734760 -1.215515 -20.179295 -3.674203 3.266646 2.565644 -11.445698 0.936530 -9.775717 -11.212577 -3.024575 -20.100037 1.541910 -7.116129 13.949325 2.956390 7.383072 -2.188378 -4.211694 1.214828 -4.846951 -4.330066 3.352425 1.343385 10.174734 1.543191 -0.762944 -3.357553 5.281214 -2.070447 -5.033759 8.413317 0.000000 0.000000 0.000000 2.583596 8.351698 0.277364 -2.432175 -0.661498 -1.166987 0.301042 -5.766672 -8.670885 0.000000 0.000000 0.000000 
-0.120571 94.415855 -0.104736 1.113725 -0.745515 91.277695 -0.456717 -5.854599 -1.267024 3.396238 4.098013 -1.365198 -8.878252 33.745842 -0.184686 6.556272 -10.338432 -0.233199 14.544235 1.735737 -1.227958 -20.225220 -3.742851 3.251980 2.603710 -11.536002 0.944428 -9.676325 -11.307280 -3.009414 -20.091810 1.523458 -7.123871 13.988775 2.973535 7.339282 -2.213255 -4.168370 1.284405 -4.786616 -4.276013 3.175738 1.338001 10.140116 1.539097 -0.764767 -3.352635 5.249748 -2.060649 -5.031775 8.408566 0.000000 0.000000 0.000000 2.579191 8.318127 0.240509 -2.437735 -0.645412 -1.157829 0.318353 -5.774567 -8.677467 0.000000 0.000000 0.000000 
-0.136932 94.413223 -0.118954 1.091867 -0.746318 91.317543 -0.456448 -5.863550 -1.271993 3.385043 4.143554 -1.371132 -8.794575 33.586990 -0.208868 6.492035 -10.229500 -0.249564 14.611158 1.671899 -1.202731 -20.329256 -3.746700 3.233630 2.617064 -11.651292 0.954967 -9.654983 -11.406803 -3.211805 -20.123035 1.477452 -7.185981 14.063318 2.984553 7.324631 -2.218739 -4.166590 1.343710 -4.887767 -4.278372 3.235763 1.331692 10.105913 1.540424 -0.760719 -3.363556 5.266481 -2.061557 -5.032808 8.355585 0.000000 0.000000 0.000000 2.584088 8.289615 0.208566 -2.452879 -0.649279 -1.178018 0.313880 -5.772650 -8.659304 0.000000 0.000000 0.000000 
-0.151501 94.411003 -0.131222 1.065558 -0.753279 91.348022 -0.466489 -5.852540 -1.264560 3.405079 4.110981 -1.363009 -8.726687 33.545006 -0.231587 6.444267 -10.192237 -0.270514 14.609835 1.670893 -1.217465 -20.379799 -3.767751 3.211237 2.637446 -11.751924 0.926155 -9.704285 -11.504749 -3.222885 -20.106537 1.470414 -7.214334 14.068265 2.995917 7.284088 -2.197853 -4.184215 1.353972 -4.976708 -4.298690 3.238463 1.334911 10.066819 1.538688 -0.765367 -3.363559 5.253220 -2.017776 -5.040094 8.354148 0.000000 0.000000 0.000000 2.588072 8.254859 0.249909 -2.456575 -0.636401 -1.210590 0.301778 -5.785614 -8.695190 0.000000 0.000000 0.000000 
-0.166500 94.406548 -0.144310 1.031722 -0.758554 91.364998 -0.475443 -5.859229 -1.256855 3.438015 4.095780 -1.355553 -8.698283 33.504757 -0.251039 6.403752 -10.188708 -0.291628 14.579908 1.650215 -1.237203 -20.399061 -3.791720 3.197225 2.667599 -11.776003 0.930983 -9.972115 -11.516726 -3.281777 -20.110367 1.477300 -7.236336 14.087255 2.956857 7.259869 -2.200130 -4.170768 1.387066 -5.120856 -4.287951 3.222622 1.330365 10.031172 1.557267 -0.758839 -3.386024 5.254805 -2.008803 -5.040431 8.308296 0.000000 0.000000 0.000000 2.591701 8.214958 0.225344 -2.462162 -0.641162 -1.190493 0.302344 -5.798985 -8.722565 0.000000 0.000000 0.000000 
-0.180218 94.401100 -0.156433 1.001380 -0.765857 91.377937 -0.471318 -5.870251 -1.247724 3.447186 4.096052 -1.346919 -8.669899 33.470089 -0.256292 6.394905 -10.212084 -0.289760 14.590755 1.650332 -1.260839 -20.434509 -3.834059 3.210434 2.634076 -11.809718 0.868446 -10.123590 -11.541792 -3.313079 -20.116415 1.463699 -7.237568 14.111318 2.965254 7.209819 -2.197744 -4.149353 1.399556 -5.254088 -4.270793 3.238655 1.327340 9.998558 1.571345 -0.753341 -3.395126 5.216753 -1.992290 -5.058635 8.314358 0.000000 0.000000 0.000000 2.593993 8.173183 0.235806 -2.464964 -0.627784 -1.184141 0.296432 -5.822521 -8.759161 0.000000 0.000000 0.000000 
